<svg width="570" height="474" viewBox="0 0 570 474" fill="none" xmlns="http://www.w3.org/2000/svg">
<g opacity="0.3">
<path d="M293.056 191.386C292.662 191.445 292.267 191.391 291.891 191.254C291.154 190.961 290.601 190.286 290.499 189.495L280.475 121.354C280.357 120.565 280.687 119.757 281.306 119.261C281.625 119.02 281.987 118.852 282.381 118.793C282.775 118.734 283.17 118.788 283.53 118.927L347.289 144.001C348.042 144.291 348.579 144.968 348.697 145.757C348.816 146.546 348.501 147.351 347.869 147.865L294.131 190.918C293.814 191.175 293.45 191.326 293.056 191.386ZM294.393 184.927L342.013 146.776L285.518 124.548L294.393 184.927Z" fill="white"/>
<path d="M174.231 98.7989C173.836 98.8581 173.426 98.8068 173.066 98.6673L109.047 73.4867C108.31 73.1942 107.773 72.5167 107.653 71.7122C107.534 70.9234 107.849 70.1181 108.484 69.6195L162.967 25.9378C163.286 25.6964 163.648 25.5292 164.042 25.47C164.436 25.4108 164.831 25.4644 165.207 25.6016L229.225 50.7822C229.963 51.0747 230.5 51.7522 230.636 52.5543C230.754 53.3431 230.44 54.1484 229.805 54.647L175.29 98.3334C174.987 98.5724 174.609 98.742 174.215 98.8012L174.231 98.7989ZM114.339 70.7083L173.509 93.9876L223.965 53.5559L164.779 30.2789L114.323 70.7106L114.339 70.7083Z" fill="white"/>
<path d="M238.411 120.851C238.001 120.913 237.624 120.873 237.265 120.733C236.493 120.429 235.956 119.752 235.838 118.963L228.449 68.7167C228.329 67.9122 228.646 67.1227 229.278 66.6084C229.581 66.3693 229.959 66.1997 230.353 66.1405C230.747 66.0814 231.142 66.135 231.517 66.2722L278.52 84.7643C279.273 85.0545 279.81 85.732 279.928 86.5207C280.049 87.3252 279.734 88.1305 279.115 88.6266L239.486 120.383C239.183 120.622 238.805 120.792 238.411 120.851ZM239.733 114.395L273.26 87.5379L233.489 71.8956L239.73 114.379L239.733 114.395Z" fill="white"/>
<path d="M119.876 139.395C119.482 139.455 119.073 139.419 118.73 139.277L72.1046 120.938C71.3516 120.648 70.8146 119.97 70.6964 119.182C70.5757 118.377 70.8904 117.572 71.5251 117.073L110.809 85.5943C111.126 85.3371 111.49 85.1857 111.884 85.1265C112.278 85.0673 112.673 85.1209 113.049 85.2581C113.802 85.5483 114.339 86.2257 114.457 87.0144L121.782 136.835C121.902 137.64 121.588 138.445 120.953 138.943C120.65 139.182 120.27 139.336 119.876 139.395ZM77.3803 118.162L116.74 133.64L110.563 91.5831L77.3803 118.162Z" fill="white"/>
<path d="M88.3129 223.376C87.9186 223.436 87.526 223.398 87.1483 223.245L24.0221 198.415C23.2691 198.125 22.7321 197.447 22.6115 196.643C22.4933 195.854 22.8079 195.049 23.4403 194.535L76.6447 151.901C76.9609 151.644 77.3251 151.492 77.7194 151.433C78.1136 151.374 78.5087 151.428 78.884 151.565C79.637 151.855 80.1763 152.548 80.2969 153.353L90.2163 220.8C90.3346 221.589 90.0066 222.412 89.3718 222.911C89.0824 223.132 88.7048 223.301 88.3105 223.361L88.3129 223.376ZM29.2979 195.639L85.1606 217.624L76.3844 157.908L29.2979 195.639Z" fill="white"/>
<path d="M98.9043 351.894L151.482 298.837L150.706 293.663L93.1941 350.59L98.9043 351.894Z" fill="white"/>
<path d="M225.935 450.66C225.556 450.717 225.13 450.668 224.755 450.53C224.033 450.235 223.481 449.56 223.36 448.756L181.297 162.638C181.285 162.559 181.273 162.48 181.277 162.399L181.256 162.257L171.66 96.8876C171.542 96.0988 171.872 95.2912 172.488 94.7793L226.99 51.1149C227.306 50.8577 227.67 50.7063 228.065 50.6471C228.459 50.588 228.851 50.6259 229.213 50.7812C229.966 51.0715 230.505 51.7648 230.626 52.5693L239.707 114.402L276.262 85.1093C276.578 84.8522 276.942 84.7007 277.336 84.6416C277.73 84.5824 278.107 84.6227 278.469 84.778C279.24 85.0817 279.777 85.7592 279.895 86.548L294.367 184.961L345.01 144.375C345.326 144.118 345.706 143.965 346.1 143.905C346.495 143.846 346.89 143.9 347.249 144.039C348.02 144.343 348.557 145.021 348.675 145.809L375.701 329.632C375.821 330.436 375.504 331.226 374.901 331.72L227.014 450.224C226.698 450.481 226.334 450.632 225.94 450.691L225.935 450.66ZM176.313 97.4957L185.806 161.961C185.806 161.961 185.827 162.103 185.823 162.184L185.871 162.5L200.815 264.277L200.836 264.419L200.857 264.561L227.287 444.199L371.071 328.972L344.791 150.328L294.147 190.913C293.845 191.152 293.467 191.322 293.073 191.381C292.679 191.44 292.268 191.389 291.909 191.249C291.172 190.957 290.635 190.279 290.516 189.49L276.045 91.0776L239.506 120.368C239.203 120.607 238.826 120.777 238.432 120.836C238.038 120.895 237.643 120.842 237.267 120.704C236.514 120.414 235.975 119.721 235.857 118.932L226.773 57.0832L176.345 97.491L176.313 97.4957Z" fill="white"/>
<path d="M225.893 450.682C225.515 450.739 225.088 450.69 224.713 450.553L51.0578 382.223C50.305 381.932 49.7681 381.255 49.6632 380.448L22.6222 196.628C22.5039 195.839 22.8184 195.034 23.453 194.535C23.7691 194.278 24.1333 194.127 24.5274 194.068C24.9216 194.009 25.3165 194.062 25.6918 194.199L85.1769 217.612L70.6981 119.152C70.5798 118.364 70.8943 117.558 71.5289 117.06C71.8473 116.819 72.2092 116.651 72.6033 116.592C72.9975 116.533 73.3925 116.587 73.7677 116.724L116.736 133.631L107.625 71.7059C107.506 70.9172 107.837 70.1095 108.455 69.6134C108.771 69.3563 109.136 69.2049 109.53 69.1457C109.924 69.0865 110.319 69.1402 110.694 69.2774L174.701 94.4635C175.454 94.7537 175.991 95.4312 176.109 96.22L186.078 163.969C186.095 164.079 186.109 164.174 186.123 164.268L186.142 164.394L202.981 279.017L203.026 279.317L227.846 448.115C227.964 448.904 227.649 449.709 227.017 450.223C226.715 450.462 226.35 450.614 225.956 450.673L225.893 450.682ZM53.9334 378.501L222.757 444.927L198.438 279.683L198.414 279.525L198.395 279.399L181.519 164.637C181.503 164.526 181.486 164.416 181.472 164.321L181.455 164.211L171.765 98.2107L112.606 74.9263L121.701 136.854C121.822 137.659 121.507 138.464 120.873 138.962C120.57 139.201 120.19 139.355 119.796 139.414C119.402 139.473 118.991 139.422 118.632 139.283L75.6633 122.375L90.1578 220.833C90.2761 221.622 89.9482 222.445 89.3137 222.943C89.0244 223.164 88.6626 223.331 88.2684 223.391C87.8742 223.45 87.4635 223.399 87.0883 223.261L27.6638 199.823L53.9334 378.501Z" fill="white"/>
<path d="M163.723 380.168C163.345 380.224 162.918 380.176 162.543 380.038L93.6777 351.935C92.9248 351.645 92.3879 350.967 92.283 350.16L80.5626 269.769C80.4442 268.981 80.7745 268.173 81.3933 267.677C81.7094 267.42 82.0737 267.268 82.4678 267.209C82.862 267.15 83.257 267.204 83.6323 267.341L151.748 291.524C152.501 291.814 153.038 292.492 153.156 293.281L165.642 377.589C165.76 378.378 165.446 379.183 164.813 379.698C164.511 379.937 164.147 380.088 163.752 380.147L163.723 380.168ZM96.5534 348.213L160.602 374.41L148.875 295.262L85.6068 272.98L96.5534 348.213Z" fill="white"/>
<path d="M225.515 431.416L359.345 250.261L360.608 258.894L226.778 440.049L225.515 431.416ZM363.59 279.205L364.887 287.85L281.734 400.381L262.997 415.403L363.608 279.219L363.59 279.205ZM221.254 402.473L355.082 221.303L356.379 229.947L222.533 411.104L221.239 402.476L221.254 402.473ZM217.025 373.526L350.853 192.356L352.147 200.984L218.286 382.144L217.023 373.51L217.025 373.526ZM367.885 308.159L369.148 316.792L344.612 350.008L325.86 365.032L367.869 308.161L367.885 308.159ZM212.762 344.568L346.592 163.413L347.887 172.042L214.025 353.201L212.731 344.573L212.762 344.568ZM208.533 315.621L309.704 178.659L328.473 163.632L209.811 324.252L208.517 315.623L208.533 315.621ZM204.301 286.658L288.055 173.295L289.318 181.928L205.566 295.307L204.27 286.663L204.301 286.658ZM200.085 257.693L283.808 144.334L285.104 152.979L201.337 266.36L200.088 257.709L200.085 257.693ZM195.825 228.75L279.563 115.39L280.825 124.023L197.088 237.384L195.825 228.75ZM191.562 199.792L265.383 99.8555L276.02 91.3397L276.58 95.0782L192.827 208.441L191.564 199.808L191.562 199.792ZM187.299 170.834L234.09 107.471L235.386 116.116L188.561 179.468L187.299 170.834ZM183.08 141.853L229.845 78.5265L231.141 87.171L184.343 150.487L183.08 141.853ZM178.817 112.895L209.866 70.8632L226.732 57.3476L226.862 58.2152L180.082 121.544L178.788 112.916L178.817 112.895Z" fill="white"/>
<path d="M137.191 367.308L156.677 340.931L155.451 332.227L131.366 364.811L137.175 367.311L137.191 367.308ZM156.649 375.68L160.764 370.11L159.538 361.406L150.841 373.18L156.649 375.68ZM111.908 356.44L117.716 358.94L152.574 311.753L151.346 303.033L111.892 356.442L111.908 356.44ZM98.2573 350.568L102.425 344.926L97.2079 350.129L98.2416 350.571L98.2573 350.568Z" fill="white"/>
</g>
<g opacity="0.6">
<path d="M528.929 159.895C528.821 160.062 528.676 160.189 528.508 160.277C528.153 160.459 527.726 160.435 527.392 160.218L456.875 114.247C456.546 114.034 456.349 113.654 456.37 113.256L460.444 27.4888C460.454 27.2899 460.514 27.0995 460.622 26.9325C460.73 26.7654 460.876 26.6384 461.044 26.5497C461.402 26.3628 461.829 26.3867 462.163 26.6032L532.674 72.5705C533.003 72.7834 533.2 73.1636 533.18 73.5614L529.105 159.329C529.099 159.522 529.039 159.713 528.931 159.88L528.929 159.895ZM458.618 112.738L526.977 157.303L530.932 74.1042L462.572 29.539L458.618 112.738Z" fill="#63FF68"/>
<path d="M458.414 113.931C458.309 114.092 458.16 114.225 457.992 114.314L382.744 152.788C382.393 152.964 381.968 152.949 381.633 152.733C381.305 152.52 381.108 152.14 381.125 151.747L385.194 65.972C385.204 65.7731 385.264 65.5828 385.372 65.4157C385.48 65.2486 385.625 65.1216 385.793 65.0329L461.048 26.5619C461.402 26.3806 461.824 26.4009 462.158 26.6174C462.486 26.8303 462.683 27.2106 462.661 27.5993L458.588 113.38C458.578 113.579 458.518 113.769 458.414 113.931ZM383.432 149.939L456.399 112.634L460.356 29.4165L387.388 66.7221L383.432 149.939Z" fill="#63FF68"/>
<path d="M455.489 136.162L454.571 137.582L452.902 172.674L454.612 173.782L455.419 172.535L455.125 172.684L456.82 137.024L455.489 136.162Z" fill="#63FF68"/>
<path d="M528.923 159.901C528.815 160.068 528.67 160.195 528.502 160.284L453.251 198.753C452.903 198.938 452.475 198.914 452.141 198.697L381.624 152.726C381.295 152.513 381.099 152.133 381.119 151.735C381.129 151.536 381.185 151.352 381.293 151.185C381.401 151.018 381.547 150.89 381.715 150.802L456.96 112.329C457.314 112.148 457.741 112.172 458.066 112.39L528.589 158.365C528.923 158.581 529.114 158.958 529.094 159.356C529.088 159.549 529.022 159.736 528.914 159.903L528.923 159.901ZM452.813 196.485L525.777 159.182L457.406 114.609L384.442 151.913L452.813 196.485Z" fill="#63FF68"/>
<path d="M489.59 157.577C489.54 157.655 489.471 157.712 489.394 157.758L454.244 175.731C454.08 175.815 453.881 175.804 453.725 175.703L420.785 154.228C420.629 154.127 420.538 153.95 420.547 153.766C420.551 153.674 420.576 153.587 420.626 153.509C420.676 153.431 420.746 153.373 420.822 153.328L455.973 135.354C456.137 135.271 456.336 135.281 456.492 135.382L489.437 156.861C489.593 156.962 489.684 157.139 489.675 157.323C489.671 157.415 489.641 157.499 489.59 157.577ZM454.12 173.186L485.572 157.106L456.1 137.894L424.648 153.974L454.12 173.186Z" fill="#63FF68"/>
<path d="M462.028 26.5552L461.769 31.966L482.586 129.388L485.632 131.362L463.411 27.4354L462.158 26.6235C462.113 26.5946 462.071 26.5749 462.028 26.5552ZM526.424 157.963L504.199 54.0188L501.159 52.0338L523.385 155.978L526.424 157.963ZM530.77 96.4152L524.581 67.3034L521.548 65.322L530.298 106.397L530.774 96.4096L530.77 96.4152ZM529.178 129.896L514.401 60.6683L511.362 58.6833L528.706 139.878L529.178 129.896ZM457.319 93.2726L462.193 116.081L465.235 118.075L457.796 83.2466L457.315 93.2782L457.319 93.2726ZM506.03 144.672L483.805 40.7271L480.765 38.7421L502.991 142.687L506.03 144.672ZM495.828 138.022L473.602 34.0776L470.563 32.0926L492.788 136.037L495.835 138.011L495.828 138.022ZM458.911 59.657L472.381 122.753L475.434 124.73L459.388 49.631L458.907 59.6625L458.911 59.657ZM516.225 151.332L494 47.3877L490.955 45.3991L513.18 149.344L516.227 151.318L516.225 151.332Z" fill="#63FF68"/>
<path d="M467.765 167.361L470.13 166.184L465.073 142.545L462.018 140.51L467.761 167.367L467.765 167.361ZM478.063 162.228L475.313 149.369L472.258 147.334L475.697 163.406L478.066 162.223L478.063 162.228ZM485.995 158.273L485.553 156.193L482.498 154.158L483.629 159.45L485.995 158.273ZM455.226 149.756L459.833 171.317L462.202 170.134L455.895 140.629L455.226 149.756ZM454.27 174.089L453.655 171.202L453.413 174.522L454.275 174.093L454.27 174.089Z" fill="#63FF68"/>
</g>
</svg>
