<svg width="93" height="84" viewBox="0 0 93 84" fill="none" xmlns="http://www.w3.org/2000/svg">
<g opacity="0.3">
<path d="M73.8093 81.4927C72.2646 81.1567 70.7199 80.8162 69.1796 80.4802C65.4919 79.6737 61.8042 78.8672 58.1165 78.0608C53.6565 77.0841 49.1964 76.1118 44.7363 75.1351C40.8656 74.2883 36.9949 73.4416 33.1197 72.5948L29.3203 71.7659C28.7221 71.636 28.106 71.4433 27.4944 71.3672C27.4676 71.3672 27.4408 71.3537 27.414 71.3492L28.1953 72.7292C28.8069 71.0311 29.4186 69.3376 30.0347 67.6395C31.4901 63.6027 32.95 59.566 34.4054 55.5292C36.1734 50.6322 37.9413 45.7351 39.7093 40.8381C41.2362 36.6042 42.7675 32.3703 44.2944 28.1319C44.7988 26.734 45.3033 25.3317 45.8123 23.9338C46.0489 23.2797 46.3391 22.6256 46.5266 21.9535C46.5355 21.9222 46.5489 21.8953 46.5579 21.8639L45.1828 22.648C46.7275 22.984 48.2722 23.3245 49.8125 23.6605L60.8756 26.0799C65.3357 27.0566 69.7957 28.0289 74.2558 29.0056C78.1265 29.8524 81.9972 30.6991 85.8724 31.5459L89.6718 32.3748C90.27 32.5047 90.8861 32.6974 91.4977 32.7735C91.5245 32.7735 91.5513 32.787 91.5781 32.7915L90.7968 31.4115C90.1852 33.1096 89.5735 34.8031 88.9574 36.5012L84.5867 48.6115C82.8187 53.5085 81.0508 58.4055 79.2828 63.3026C77.756 67.5365 76.2246 71.7704 74.6978 76.0088C74.1933 77.4067 73.6888 78.809 73.1798 80.2069C72.9432 80.861 72.6664 81.5151 72.4655 82.1872C72.4566 82.2185 72.4432 82.2454 72.4342 82.2768C72.2289 82.8458 72.6664 83.5044 73.2155 83.6567C73.8361 83.827 74.3808 83.4462 74.5906 82.8727C75.2022 81.1746 75.8139 79.4811 76.43 77.783L80.8008 65.6727C82.5687 60.7756 84.3367 55.8786 86.1046 50.9816C87.6315 46.7477 89.1628 42.5138 90.6897 38.2754L92.2076 34.0773C92.4442 33.4232 92.721 32.7691 92.9219 32.097C92.9309 32.0656 92.9443 32.0388 92.9532 32.0074C93.1496 31.4608 92.7299 30.7529 92.1719 30.6275C90.6272 30.2914 89.0824 29.9509 87.5422 29.6149C83.8545 28.8084 80.1668 28.002 76.4791 27.1955C72.019 26.2188 67.559 25.2466 63.0989 24.2699C59.2282 23.4231 55.3574 22.5763 51.4822 21.7295C49.6071 21.3218 47.741 20.8648 45.8569 20.4974C45.8301 20.4929 45.8034 20.484 45.7766 20.4795C45.1515 20.3406 44.6203 20.6677 44.4015 21.2635C43.7899 22.9616 43.1782 24.6552 42.5621 26.3532C41.1067 30.39 39.6468 34.4268 38.1914 38.4636C36.4234 43.3606 34.6555 48.2576 32.8875 53.1546C31.3606 57.3885 29.8293 61.6224 28.3024 65.8608C27.7979 67.2587 27.2935 68.661 26.7845 70.0589C26.5479 70.713 26.2711 71.3672 26.0702 72.0392C26.0612 72.0706 26.0479 72.0975 26.0389 72.1288C25.8425 72.6754 26.2621 73.3833 26.8202 73.5088C28.3649 73.8448 29.9097 74.1853 31.4499 74.5213C35.1376 75.3278 38.8253 76.1342 42.513 76.9407C46.9731 77.9174 51.4331 78.8896 55.8932 79.8664C59.7639 80.7131 63.6347 81.5599 67.5099 82.4067C69.385 82.8144 71.2511 83.2714 73.1352 83.6388C73.162 83.6433 73.1887 83.6522 73.2155 83.6567C74.6174 83.9614 75.2156 81.8019 73.8093 81.4972V81.4927Z" fill="white"/>
<path d="M92.663 30.9186C91.4174 29.9419 90.1718 28.9652 88.9262 27.9884C86.1314 25.7976 83.3411 23.6067 80.5463 21.4158C77.7515 19.2249 74.6933 16.8234 71.7645 14.525C70.1216 13.2347 68.4787 11.9444 66.8357 10.6585C66.05 10.0447 64.9695 9.97749 64.0141 9.7714L56.3619 8.10023L45.5935 5.74357C41.8121 4.91471 38.0306 4.09033 34.2492 3.26147C31.1329 2.58045 28.0212 1.89944 24.9049 1.21843L20.0073 0.143152L19.7841 0.0938681C19.2975 -0.0136599 18.7841 0.165554 18.5251 0.609107C18.2974 1.00338 18.3153 1.66647 18.6992 1.96665C21.6324 4.26954 24.5701 6.57243 27.5033 8.87533C32.1598 12.5313 36.8207 16.1828 41.4772 19.8387C42.5487 20.6765 43.6157 21.5188 44.6872 22.3567C45.1605 22.7285 45.8033 22.8226 46.2677 22.3567C46.6516 21.9714 46.7454 21.147 46.2677 20.7706C43.3345 18.4677 40.3968 16.1648 37.4636 13.8619C32.8071 10.206 28.1462 6.55451 23.4897 2.89856C22.4182 2.06074 21.3512 1.21843 20.2797 0.38061L19.1948 2.25339C20.7395 2.58942 22.2842 2.92992 23.8245 3.26595C27.5122 4.07241 31.1999 4.87887 34.8876 5.68533L48.2678 8.61099C52.1385 9.45777 56.0093 10.3046 59.8845 11.1513L63.6838 11.9802C64.2775 12.1101 64.9026 12.3117 65.5098 12.379C65.5365 12.379 65.5633 12.3924 65.5901 12.3969L65.099 12.1101C68.0322 14.413 70.9699 16.7159 73.9031 19.0188C78.5595 22.6748 83.2205 26.3262 87.877 29.9822C88.9485 30.82 90.0155 31.6623 91.087 32.5001C91.5602 32.872 92.2031 32.9661 92.6674 32.5001C93.0514 32.1148 93.1451 31.2905 92.6674 30.9141L92.663 30.9186Z" fill="white"/>
<path d="M18.409 0.878248C17.7974 2.5763 17.1858 4.26986 16.5697 5.96791C15.1142 10.0047 13.6543 14.0415 12.1989 18.0783C10.4309 22.9753 8.66299 27.8723 6.89504 32.7693C5.36818 37.0032 3.83684 41.2371 2.30998 45.4755L0.79204 49.6736C0.555421 50.3277 0.27862 50.9819 0.0777169 51.6539C0.0687879 51.6853 0.0553943 51.7122 0.0464653 51.7435C-0.0740769 52.0795 0.0464653 52.6082 0.332195 52.8322C3.26539 55.1351 6.20304 57.438 9.13623 59.7409C13.7927 63.3969 18.4537 67.0484 23.1102 70.7043C24.1817 71.5421 25.2487 72.3844 26.3202 73.2223C26.7934 73.5941 27.4363 73.6882 27.9006 73.2223C28.2846 72.8369 28.3783 72.0126 27.9006 71.6362C24.9674 69.3333 22.0298 67.0304 19.0966 64.7275C14.4401 61.0716 9.77912 57.4201 5.12263 53.7642C4.05114 52.9263 2.98412 52.084 1.91264 51.2462L2.19836 52.3349C2.81 50.6369 3.42164 48.9433 4.03775 47.2453C5.49318 43.2085 6.95308 39.1717 8.40851 35.1349C10.1765 30.2379 11.9444 25.3409 13.7124 20.4439C15.2392 16.21 16.7706 11.976 18.2974 7.73765L19.8154 3.53957C20.052 2.88544 20.3288 2.23131 20.5297 1.55926C20.5386 1.5279 20.552 1.50102 20.5609 1.46965C20.7663 0.90065 20.3288 0.24204 19.7797 0.089709C19.1591 -0.0805438 18.6144 0.300285 18.4046 0.873768L18.409 0.878248Z" fill="white"/>
<path d="M73.9075 82.1783C70.9743 79.8754 68.0367 77.5725 65.1035 75.2696C60.447 71.6136 55.786 67.9622 51.1295 64.3062C50.058 63.4684 48.991 62.6261 47.9195 61.7882L48.0624 62.3349C48.674 60.6368 49.2857 58.9432 49.9018 57.2452C51.3572 53.2084 52.8171 49.1716 54.2726 45.1348C56.0405 40.2378 57.8085 35.3408 59.5764 30.4438C61.1033 26.2099 62.6346 21.976 64.1615 17.7376C64.666 16.3397 65.1705 14.9374 65.6794 13.5395C65.916 12.8854 66.1973 12.2312 66.3937 11.5592C66.4027 11.5278 66.4161 11.5009 66.425 11.4696C66.6705 10.7886 65.5901 10.4974 65.349 11.1739C64.7374 12.8719 64.1258 14.5655 63.5097 16.2635C62.0542 20.3003 60.5943 24.3371 59.1389 28.3739C57.3709 33.2709 55.603 38.1679 53.835 43.0649C52.3082 47.2988 50.7768 51.5328 49.25 55.7712L47.732 59.9692C47.4954 60.6234 47.2141 61.2775 47.0177 61.9495C47.0088 61.9809 46.9954 62.0078 46.9865 62.0392C46.9284 62.2049 46.9865 62.4737 47.1293 62.5858C50.0625 64.8886 53.0002 67.1915 55.9334 69.4944C60.5899 73.1504 65.2508 76.8019 69.9073 80.4578C70.9788 81.2956 72.0458 82.1379 73.1173 82.9758C73.6754 83.4148 74.4701 82.6263 73.9075 82.1827V82.1783Z" fill="white"/>
<path d="M47.6695 61.6451C46.1248 61.309 44.5801 60.9685 43.0398 60.6325C39.3521 59.8261 35.6644 59.0196 31.9767 58.2131C27.5167 57.2364 23.0566 56.2642 18.5965 55.2875L6.97986 52.7471C5.10923 52.3394 3.23859 51.8779 1.35456 51.515C1.32777 51.5105 1.30099 51.5016 1.2742 51.4971C0.57327 51.3448 0.274147 52.4245 0.979542 52.5769C2.52427 52.9129 4.06899 53.2534 5.60925 53.5894C9.29695 54.3959 12.9846 55.2023 16.6723 56.0088C21.1324 56.9855 25.5925 57.9577 30.0525 58.9345L41.6692 61.4748C43.5398 61.8825 45.4105 62.344 47.2945 62.7069C47.3213 62.7114 47.3481 62.7204 47.3749 62.7248C48.0758 62.8772 48.3749 61.7974 47.6695 61.6451Z" fill="white"/>
</g>
</svg>
