<svg width="131" height="112" viewBox="0 0 131 112" fill="none" xmlns="http://www.w3.org/2000/svg">
<g opacity="0.3">
<path d="M54.0685 0.586702C52.5652 0.96935 51.062 1.352 49.5587 1.73465C45.9498 2.653 42.3409 3.57136 38.732 4.48971C34.3634 5.59939 29.9947 6.71453 25.6261 7.82421C21.8272 8.79177 18.0284 9.75385 14.235 10.7214C12.4061 11.186 10.5338 11.5742 8.72668 12.1208C8.69955 12.1263 8.67241 12.1317 8.6507 12.1427C8.01576 12.3067 7.73356 12.8642 7.65215 13.4601C7.39709 15.4444 7.14202 17.4287 6.89239 19.413C6.29 24.1305 5.68219 28.848 5.0798 33.5655C4.34174 39.3161 3.60911 45.0613 2.87105 50.812C2.23611 55.7645 1.60116 60.7116 0.96621 65.6642L0.336689 70.5785C0.239005 71.3438 0.0816249 72.1255 0.0382096 72.8962C0.0382096 72.929 0.0273558 72.9673 0.0273558 73.0001C-0.0649015 73.7326 0.716572 74.3667 1.38408 74.3667C2.19269 74.3667 2.64855 73.738 2.74081 73.0001C2.99587 71.0158 3.25094 69.0315 3.50057 67.0472C4.10296 62.3297 4.71077 57.6122 5.31316 52.8947C6.05122 47.144 6.78385 41.3988 7.52191 35.6482C8.15686 30.6956 8.7918 25.7485 9.42675 20.796L10.0563 15.8817C10.154 15.1164 10.3059 14.3347 10.3548 13.5639C10.3548 13.5311 10.3656 13.4929 10.3656 13.4601L9.36706 14.7775C10.8703 14.3948 12.3736 14.0122 13.8768 13.6295C17.4857 12.7112 21.0946 11.7928 24.7035 10.8745C29.0721 9.76478 33.4408 8.64964 37.8095 7.53996C41.6083 6.57241 45.4071 5.61032 49.2005 4.64277C51.0294 4.17813 52.9017 3.79001 54.7088 3.24337C54.736 3.2379 54.7631 3.23244 54.7848 3.22151C56.478 2.78966 55.7617 0.154856 54.063 0.586702H54.0685Z" fill="white"/>
<path d="M0.689198 74.17C2.25215 74.9517 3.81509 75.7334 5.37804 76.5151C9.37767 78.5158 13.3773 80.5164 17.3769 82.5172C22.7224 85.1902 28.0625 87.8633 33.408 90.5364C39.0628 93.368 44.7231 96.1941 50.3779 99.0257C55.2459 101.458 60.1084 103.896 64.9763 106.329C68.0099 107.848 71.0436 109.363 74.0772 110.882C74.5765 111.128 75.0649 111.396 75.5696 111.631C76.4053 112.025 77.469 111.56 78.3156 111.347C82.8254 110.199 87.3297 109.051 91.8395 107.909C97.8742 106.373 103.909 104.836 109.944 103.3C113.786 102.322 117.634 101.343 121.476 100.365C121.666 100.316 121.861 100.267 122.051 100.217C122.458 100.113 122.941 99.709 123.001 99.2607C123.267 97.2819 123.533 95.3031 123.793 93.3297C124.428 88.5794 125.063 83.8346 125.703 79.0843L128.004 61.9252L129.991 47.084C130.316 44.6678 130.636 42.2462 130.962 39.8301C130.962 39.7973 130.973 39.759 130.978 39.7262C131.054 39.1522 130.935 38.4744 130.354 38.1847C127.842 36.9329 125.334 35.6865 122.822 34.4347C116.836 31.4555 110.85 28.4763 104.869 25.4917C97.6354 21.8893 90.4013 18.287 83.1727 14.6846C76.9046 11.5633 70.6366 8.442 64.363 5.32068C61.324 3.80649 58.3012 2.24857 55.2404 0.778105C55.197 0.75624 55.159 0.734374 55.1156 0.717975C54.459 0.389991 53.6449 0.537584 53.2596 1.20995C52.9069 1.81125 53.0859 2.75147 53.748 3.07946C56.2607 4.33126 58.7679 5.5776 61.2806 6.82941C67.2664 9.80859 73.2523 12.7878 79.2328 15.7724C86.4668 19.3748 93.7009 22.9771 100.93 26.5795C107.198 29.7008 113.466 32.8221 119.739 35.9434C121.801 36.9711 123.858 37.9933 125.92 39.021C126.892 39.5021 127.858 40.087 128.867 40.486C128.911 40.5024 128.949 40.5298 128.992 40.5462L128.368 39.0046C128.102 40.9835 127.836 42.9623 127.576 44.9357C126.941 49.686 126.306 54.4308 125.665 59.1811C124.9 64.899 124.135 70.6168 123.364 76.3401C122.702 81.2872 122.04 86.2343 121.378 91.1814L120.721 96.0957C120.618 96.861 120.434 97.6591 120.407 98.4353C120.407 98.4681 120.396 98.5064 120.39 98.5392L121.34 97.5825C119.837 97.9652 118.334 98.3478 116.83 98.7305C113.221 99.6488 109.613 100.567 106.004 101.486C101.635 102.595 97.2664 103.71 92.8977 104.82C89.0989 105.788 85.3 106.75 81.5066 107.717L77.7729 108.668C77.1922 108.816 76.5682 108.92 75.9983 109.122C75.9712 109.133 75.9441 109.133 75.9223 109.144L76.9697 109.281C74.4788 108.034 71.9824 106.788 69.4915 105.536C63.5436 102.562 57.6011 99.5887 51.6532 96.6095C44.4246 92.9908 37.1905 89.3775 29.9619 85.7587C23.7481 82.6483 17.5289 79.538 11.3151 76.4276C8.27601 74.9079 5.25865 73.3445 2.2033 71.8686C2.15989 71.8467 2.1219 71.8249 2.07849 71.8085C0.520964 71.0268 -0.857469 73.3828 0.710905 74.17H0.689198Z" fill="white"/>
<path d="M45.7651 62.6141C48.2777 63.8659 50.785 65.1123 53.2976 66.3641C59.2835 69.3433 65.2694 72.3225 71.2498 75.3071C78.4839 78.9095 85.7179 82.5118 92.9466 86.1142C99.2146 89.2355 105.483 92.3568 111.756 95.4781C114.795 96.9923 117.818 98.5502 120.879 100.021C120.922 100.043 120.96 100.064 121.004 100.081C121.66 100.409 122.474 100.261 122.86 99.5888C123.212 98.9875 123.033 98.0473 122.371 97.7193C119.859 96.4675 117.351 95.2212 114.839 93.9694C108.853 90.9902 102.867 88.011 96.8865 85.0264C89.6524 81.424 82.4184 77.8216 75.1897 74.2193C68.9217 71.098 62.6536 67.9767 56.3801 64.8554C53.341 63.3412 50.3183 61.7832 47.2575 60.3128C47.2141 60.2909 47.1761 60.269 47.1327 60.2526C46.476 59.9247 45.662 60.0723 45.2767 60.7446C44.9239 61.3459 45.103 62.2861 45.7651 62.6141Z" fill="white"/>
<path d="M8.66135 14.0507C11.174 15.3026 13.6812 16.5489 16.1939 17.8007C22.1798 20.7799 28.1656 23.7591 34.1461 26.7437C41.3801 30.3461 48.6142 33.9484 55.8428 37.5508C62.1109 40.6721 68.379 43.7934 74.6525 46.9147L80.8337 49.9923L82.7549 50.9489C83.0805 51.1129 83.4332 51.348 83.7805 51.4573C83.824 51.4737 83.8674 51.501 83.9053 51.5174L83.596 50.7467C83.3301 52.7255 83.0642 54.7043 82.8037 56.6777C82.1687 61.428 81.5338 66.1729 80.8934 70.9232C80.1282 76.641 79.363 82.3589 78.5924 88.0822C77.9303 93.0293 77.2682 97.9764 76.6062 102.923C76.2806 105.34 75.9604 107.761 75.6348 110.177C75.6348 110.21 75.6239 110.248 75.6185 110.281C75.5045 111.139 76.8124 111.511 76.9264 110.642C77.1923 108.663 77.4582 106.684 77.7187 104.711C78.3536 99.9607 78.9886 95.2158 79.629 90.4655C80.3941 84.7477 81.1593 79.0298 81.93 73.3065C82.592 68.3594 83.2541 63.4123 83.9162 58.4652C84.2418 56.0491 84.562 53.6275 84.8876 51.2113C84.8876 51.1785 84.8985 51.1403 84.9039 51.1075C84.9419 50.8177 84.8822 50.4788 84.5946 50.3367C82.0819 49.0849 79.5747 47.8386 77.062 46.5868C71.0762 43.6076 65.0903 40.6284 59.1098 37.6437C51.8758 34.0414 44.6417 30.439 37.4131 26.8367C31.145 23.7153 24.8769 20.594 18.6034 17.4727C15.5644 15.9585 12.5416 14.3951 9.48081 12.9301C9.4374 12.9083 9.39941 12.8864 9.35599 12.87C8.57452 12.4819 7.8853 13.6572 8.6722 14.0507H8.66135Z" fill="white"/>
<path d="M84.4264 51.5887C85.9296 51.206 87.4329 50.8234 88.9361 50.4407C92.545 49.5224 96.1539 48.604 99.7628 47.6857C104.131 46.576 108.5 45.4609 112.869 44.3512C116.668 43.3836 120.466 42.4215 124.26 41.454L127.994 40.5028C128.58 40.3552 129.198 40.2459 129.768 40.0491C129.795 40.0382 129.822 40.0382 129.844 40.0273C130.691 39.8141 130.333 38.4912 129.486 38.7099C127.983 39.0925 126.479 39.4751 124.976 39.8578C121.367 40.7762 117.758 41.6945 114.15 42.6129C109.781 43.7225 105.412 44.8377 101.044 45.9474C97.2447 46.9149 93.4459 47.877 89.6525 48.8446L85.9188 49.7957C85.3327 49.9433 84.714 50.0526 84.1442 50.2494C84.117 50.2604 84.0899 50.2604 84.0682 50.2713C83.2216 50.4845 83.5798 51.8073 84.4264 51.5887Z" fill="white"/>
<path d="M1.73661 74.3068C3.22901 73.9241 4.7214 73.5415 6.2138 73.1588C9.80098 72.2405 13.3882 71.3221 16.9753 70.3983C21.3169 69.2831 25.653 68.1735 29.9945 67.0583C33.7499 66.0962 37.4999 65.1341 41.2553 64.1721C43.0733 63.7074 44.9402 63.3193 46.7365 62.7672C46.7636 62.7617 46.7907 62.7563 46.8125 62.7453C47.2195 62.6415 47.7025 62.237 47.7622 61.7887C48.0281 59.8099 48.294 57.831 48.5545 55.8577C49.1894 51.1074 49.8244 46.3625 50.4648 41.6122C51.23 35.8944 51.9952 30.1765 52.7658 24.4532C53.4279 19.5061 54.0899 14.559 54.752 9.61194C55.0776 7.19579 55.3978 4.77418 55.7234 2.35803C55.7234 2.32523 55.7343 2.28697 55.7397 2.25417C55.8374 1.52167 55.566 0.789176 54.79 0.57052C54.1605 0.395595 53.2216 0.789176 53.1185 1.52714C52.8526 3.50598 52.5867 5.48481 52.3262 7.45818C51.6912 12.2085 51.0563 16.9533 50.4159 21.7036C49.6507 27.4215 48.8855 33.1393 48.1149 38.8626C47.4528 43.8097 46.7907 48.7568 46.1287 53.7039C45.9116 55.3438 45.6891 56.9837 45.472 58.6182C45.3689 59.3835 45.1844 60.1816 45.1572 60.9578C45.1572 60.9906 45.1464 61.0289 45.141 61.0617L46.0907 60.1051C44.5983 60.4877 43.1059 60.8704 41.6135 61.253C38.0263 62.1714 34.4391 63.0897 30.8519 64.0135C26.5104 65.1287 22.1743 66.2384 17.8328 67.3535L6.57198 70.2398C4.75396 70.7044 2.88711 71.0925 1.09081 71.6446C1.06367 71.6501 1.03654 71.6556 1.01483 71.6665C-0.678364 72.0983 0.0379869 74.7386 1.73661 74.3013V74.3068Z" fill="white"/>
</g>
</svg>
