<svg width="112" height="20" viewBox="0 0 112 20" fill="none" xmlns="http://www.w3.org/2000/svg">
<path d="M8.62 10.55L8.59 8.87L21.67 20H15.91L4.27 9.8L14.62 0.59H20.29L8.62 10.55ZM0.31 0.59H4.3V20H0.31V0.59Z" fill="#63FF68"/>
<path d="M28.7336 11.9V16.67H43.7036V20H24.7436V0.59H43.6736V3.92H28.7336V8.75H40.9736V11.9H28.7336ZM54.6702 20L46.0902 0.59H50.5002L57.8502 18.11H56.4702L63.7902 0.59H68.1402L59.6502 20H54.6702ZM71.632 0.59H75.622V20H71.632V0.59ZM100.469 16.04L99.2085 16.55V0.59H103.199V20H99.2085L83.5185 4.67L84.7785 4.16V20H80.7885V0.59H84.7785L100.469 16.04ZM111.85 16.58V20H107.32V16.58H111.85Z" fill="white"/>
</svg>
